# xmcd
#
# Track frame offsets: 
#        150
#        24360
#        42384
#        62999
#        81405
#        100888
#        122937
#        137851
#        158738
#        168781
#        191131
#        214419
#        238123
#        257018
#        268523
#        289050
#        310796
#        327812
#
# Disc length: 4624 seconds
#
# Revision: 0
# Processed by: cddbd v1.5.2PL0 Copyright (c) Steve Scherf et al.
# Submitted via: ExactAudioCopy v0.99pb5
#
DISCID=0b120e12
DTITLE=Various Artist - 15 Years of Rhythms - Disc 2
DYEAR=2007
DGENRE=Other
TTITLE0=Bob Dylan - Love Sick
TTITLE1=The Waifs - Don't Think Twice It's Alright
TTITLE2=Lucinda Williams - Right In Time
TTITLE3=Paul Kelly and The Stormwater Boys - Stumbling Block
TTITLE4=Archie Roach - From Paradise
TTITLE5=Gillian Welch - Wrecking Ball
TTITLE6=Mia Dyson - People Will Turn On You
TTITLE7=John Hiatt - Perfectly Good Guitar
TTITLE8=Sarah Carroll - Accident Waiting To Happen
TTITLE9=Jeff Lang and Chris Whitley - When I Paint My Masterpiece
TTITLE10=The Greencards - Long Way Down
TTITLE11=Dave Hole - Short Fuse Blues
TTITLE12=Stephen Cummings - Who Listens To The Radio?
TTITLE13=Keiran Kane, Kevin Welch and Fats Kaplan - Postcards From Mexic
TTITLE13=o
TTITLE14=Xavier Rudd - Gba
TTITLE15=Old Crow Medicine Show - We're All In This Together
TTITLE16=Chris Smither - Leave The Light On
TTITLE17=Dom Turner and Supro - House On The Corner
EXTD=
EXTT0=
EXTT1=
EXTT2=
EXTT3=
EXTT4=
EXTT5=
EXTT6=
EXTT7=
EXTT8=
EXTT9=
EXTT10=
EXTT11=
EXTT12=
EXTT13=
EXTT14=
EXTT15=
EXTT16=
EXTT17=
PLAYORDER=
